<?xml version="1.0" encoding="utf-8"?>
<!-- Generator: Adobe Illustrator 17.0.0, SVG Export Plug-In . SVG Version: 6.00 Build 0)  -->
<!DOCTYPE svg PUBLIC "-//W3C//DTD SVG 1.1//EN" "http://www.w3.org/Graphics/SVG/1.1/DTD/svg11.dtd">
<svg version="1.1" id="Layer_1" xmlns="http://www.w3.org/2000/svg" xmlns:xlink="http://www.w3.org/1999/xlink" x="0px" y="0px"
	  viewBox="0 0 425.559 150.424" enable-background="new 0 0 425.559 150.424"
	 xml:space="preserve">
<path fill="#753818" d="M110.443,79.749c-6.32,0-13.502,4.376-16.35,9.962c-0.25,0.489-0.5,1.001-0.754,1.52
	c-1.291,2.632-2.897,5.907-4.521,5.907c-0.001,0-0.002,0-0.003,0c-0.093-0.007-0.131-0.023-0.129-0.021
	c-0.254-0.347,0.303-2.214,0.709-3.577c1.081-3.619,2.56-8.576,0.472-13.095c-1.824-3.943-6.171-5.342-9.34-5.342
	c-0.581,0-1.154,0.045-1.703,0.133c-4.634,0.745-8.568,4.682-9.554,7.903c-0.511,1.669-0.238,3.109,0.769,4.055
	c0.632,0.593,1.285,0.881,1.996,0.881c0,0,0,0,0,0c1.009,0,1.907-0.593,2.857-1.22c1.124-0.741,2.397-1.582,4.069-1.582
	c0.43,0,0.879,0.056,1.334,0.166c4.484,1.082,0.574,29.459-1.096,41.576c-0.574,4.168-1.028,7.46-1.153,9.186
	c-0.15,2.067-0.187,7.214,2.724,10.362c1.482,1.604,3.496,2.424,5.986,2.438h0.122c1.736,0,3.69-0.196,5.021-1.653
	c1.513-1.657,1.956-4.576,1.482-9.761c-0.144-1.575-0.598-3.448-1.123-5.617c-1.268-5.236-3.005-12.408-1.513-20.809
	c1.137-6.393,3.823-10.137,8.112-15.541c1.943-2.447,4.825-5.7,7.403-5.7c0.287,0,0.569,0.041,0.839,0.124
	c1.231,0.375,1.423,1.525,1.634,3.371c0.202,1.764,0.431,3.764,2.377,4.612c0.649,0.283,1.319,0.427,1.991,0.427
	c2.339,0,4.625-1.785,5.966-4.658c1.33-2.851,1.877-7.379-0.956-10.757C116.307,80.887,113.655,79.749,110.443,79.749z"/>
<path fill="#753818" d="M421.735,127.676c-1.43-0.22-2.066,0.995-2.728,2.271c-0.9,1.739-1.921,3.711-5.176,3.711l-0.207-0.003
	c-0.631-0.016-1.214-0.362-1.735-1.03c-2.558-3.278-3.428-14.257-0.142-28.898c1.3-5.81,2.234-11.12,0.485-17.291
	c-1.869-6.609-7.999-11.05-15.253-11.05c-2.699,0-5.343,0.611-7.858,1.817c-6.84,3.278-12.366,9.537-12.317,13.951
	c0.019,1.698,0.867,2.976,2.456,3.694c0.809,0.367,1.597,0.553,2.342,0.553c3.015,0,4.928-2.885,6.953-5.938
	c2.095-3.158,4.26-6.423,7.755-6.717c0.269-0.022,0.542-0.033,0.817-0.033c3.695,0,7.457,1.916,8.943,4.556
	c0.694,1.232,0.868,2.377,0.517,3.402c-0.501,1.459-2.037,2.734-4.565,3.792c-4.642,1.941-24.422,11.348-29.213,15.331
	c-9.502,7.902-10.329,14.907-10.876,19.543c-0.245,2.083-0.423,3.589-1.298,4.386c-2.567,2.339-5.024,3.524-7.304,3.525
	c-0.001,0,0,0-0.001,0c-4.466,0-6.938-4.6-6.939-7.778c0.003-3.818,4.588-10.118,6.791-13.146c0.534-0.735,0.957-1.316,1.191-1.685
	c4.646-7.271,9.284-15.631,10.502-30.715c1.701-21.024-3.785-30.572-7.206-34.393c-2.5-2.791-4.977-3.827-6.411-3.868
	c-6.058,0-15.973,23.957-16.851,45.48c-0.304,7.434,0.381,20.578,5.369,40.981c0.141,0.578,0.235,0.96,0.267,1.119
	c0.751,3.757,4.95,14.657,11.134,14.657c3.077,0,6.12-2.696,9.044-8.013c0.236-0.431,0.473-0.677,0.648-0.677
	c0.436,0,1.196,1.012,1.867,1.904c0.62,0.825,1.323,1.76,2.152,2.526c2.743,2.538,7.344,4.054,12.307,4.054
	c5.001,0,14.475-1.579,21.736-12.152c0.64-0.932,1.166-1.715,1.608-2.373c2.104-3.134,2.198-3.237,3.433-3.294
	c0.209,0.451,0.293,2.122,0.367,3.607c0.266,5.328,0.711,14.247,7.04,14.249c0.001,0,0.001,0,0.002,0c0.376,0,0.772-0.033,1.179-0.1
	c4.256-0.685,6.819-4.026,8.221-6.71c1.821-3.488,2.466-7.255,2.461-9.617C423.239,129.117,422.704,127.828,421.735,127.676z
	 M396.785,119.86c-1.844,4.757-3.073,8.31-5.836,12.632c-1.939,3.032-4.971,6.225-8.535,7.159c-5.434,1.428-9.162-2.111-9.763-7.329
	c-1.828-15.899,16.607-24.263,28.763-28.649C399.79,110.867,398.794,114.677,396.785,119.86z"/>
<g>
	<path fill="#753818" d="M37.302,149.035c-0.836,0-1.638-0.015-2.396-0.034c-11.349-0.297-16.45-5.372-20.175-9.078
		c-0.399-0.397-0.786-0.781-1.166-1.146c-9.428-9.054-20.61-33.55-2.721-67.936C26.287,41.16,55.146,32.217,68.249,31.635
		c1.564-0.069,2.946-0.103,4.224-0.103c7.673,0,17.978,1.12,18.879,10.806c0.173,1.856-0.469,3.688-1.807,5.156
		c-1.573,1.727-3.892,2.758-6.202,2.758c-2.166,0-4.083-0.922-5.4-2.598c-0.337-0.429-0.666-0.876-0.999-1.329
		c-2.071-2.816-4.217-5.727-9.533-5.447c-15.92,0.839-30.854,13.417-44.384,37.387c-8.301,14.704-10.496,31.09-6.022,44.958
		c2.48,7.688,6.847,13.771,11.395,15.872c5.433,2.509,10.781,1.028,16.895-4.706c5.517-5.177,8.262-14.899,8.991-22.273
		c0.037-0.364,0.144-1.032,0.289-1.921c0.721-4.441,2.638-16.239-0.488-19.925c-0.604-0.713-1.364-1.061-2.323-1.063
		c-4.62,0-5.386,3.76-6.03,9.497c-0.517,4.602-1.103,9.817-6.32,9.817c0,0,0,0-0.001,0c-1.05,0-2.222-0.21-3.582-0.644
		c-2.985-0.952-4.36-4.144-3.676-8.538c1.112-7.147,7.85-17.115,17.489-16.682c5.454,0.248,9.955,2.905,12.673,7.48
		c7.26,12.225,8.617,44.505-6.937,54.574C49.392,148.587,42.195,149.035,37.302,149.035z"/>
</g>
<path fill="#4BB649" d="M351.606,51.664c-3.572-0.396-8.569,15.946-10.484,25.935c-4.267,22.247,1.633,42.598,2.426,44.163
	c0.513,1.011,4.561-20.131,5.123-27.604c0.175-2.326,0.654-6.381,0.212-8.987c-0.477-2.808-1.894-7.439-1.834-9.485
	c0.053-1.799,0.615-4.203,3.417-4.055c1.878,0.1,2.867,2.493,3.034,4.301c0.205,2.223-0.494,5.478-1.133,9.126
	c-0.536,3.059-3.055,25.43-7.493,36.881c-0.338,0.871,10.869-14.078,14.926-40.442C361.545,70.157,357.247,52.289,351.606,51.664z"
	/>
<g id="Layer_2">
	<g id="Layer_3">
		<path fill="#753818" d="M172.186,128.387c0.833,0.132,1.293,1.338,1.302,3.387c0.005,2.336-0.634,6.061-2.435,9.508
			c-1.37,2.632-3.881,5.911-8.03,6.577c-0.396,0.064-0.78,0.095-1.146,0.093c-6.094,0-6.534-8.776-6.796-14.014
			c-0.082-1.648-0.183-3.707-0.494-3.854c-1.518,0.065-1.643,0.258-3.767,3.415c-0.437,0.659-0.962,1.438-1.599,2.371
			c-7.202,10.474-16.584,12.041-21.536,12.04c-2.414,0.001-4.781-0.378-6.877-1.072c-2.102-0.687-3.926-1.683-5.255-2.915
			c-2.765-2.553-4.627-5.897-5.117-9.177c-0.774-5.132-0.267-13.238,13.025-24.292c4.775-3.967,24.518-13.356,29.151-15.296
			c2.597-1.083,4.182-2.409,4.704-3.939c0.378-1.095,0.198-2.309-0.532-3.605c-1.53-2.714-5.38-4.686-9.165-4.684
			c-0.281-0.005-0.561,0.01-0.834,0.032c-3.619,0.304-5.816,3.62-7.945,6.829c-1.985,2.996-3.864,5.825-6.741,5.827
			c-0.711,0.002-1.467-0.178-2.241-0.533c-1.495-0.673-2.294-1.876-2.31-3.467c-0.045-4.325,5.414-10.485,12.174-13.722
			c2.483-1.19,5.088-1.791,7.75-1.792c7.145,0.001,13.175,4.367,15.014,10.87c1.73,6.114,0.805,11.388-0.489,17.162
			c-3.459,15.405-2.328,25.889,0.189,29.109c0.57,0.733,1.214,1.112,1.926,1.13l0.215,0c3.406,0.002,4.51-2.132,5.392-3.842
			C170.373,129.276,170.934,128.196,172.186,128.387z M152.706,103.638c-12.156,4.385-30.591,12.75-28.763,28.649
			c0.601,5.218,4.328,8.757,9.763,7.329c3.564-0.934,6.596-4.127,8.535-7.159c2.762-4.322,3.992-7.874,5.836-12.632
			C150.085,114.642,151.081,110.832,152.706,103.638"/>
	</g>
</g>
<g id="Layer_4">
	<g>
	</g>
	<g>
		<g>
			<path fill="#753818" d="M289.148,148.556c-6.212,0-6.596-7.454-6.876-12.896c-0.104-2.037-0.224-4.347-0.697-4.878
				c-0.048-0.055-0.074-0.068-0.074-0.069c-0.085,0.02-0.453,0.278-0.696,0.449l-0.232,0.162c-0.471,0.326-1.261,1.708-2.099,3.172
				c-2.76,4.825-7.379,12.9-16.07,13.359c-1.063,0.057-2.007,0.084-2.884,0.084c-6.57,0.001-12.892-1.431-14.644-11.812
				c-1.292-7.635,0.404-18.927,1.901-28.889c1.434-9.542,3.059-20.356,0.304-21.021c-0.446-0.108-0.887-0.163-1.309-0.163
				c-1.633,0-2.878,0.821-3.977,1.547c-0.933,0.615-1.813,1.196-2.807,1.196c-0.701,0.001-1.344-0.282-1.965-0.865
				c-0.992-0.93-1.263-2.346-0.761-3.987c0.968-3.162,4.827-7.028,9.376-7.76c0.627-0.1,1.295-0.15,1.988-0.15
				c3.292,0,7.506,1.189,9.499,3.846c2.148,2.861,2.181,6.511,2.018,10.312c-0.062,1.461-0.646,4.313-1.386,7.925
				c-2.309,11.276-6.605,32.267,0.635,36.473l0,0c0.015,0,2.597,1.079,4.159,1.079l0.138-0.003
				c16.509-0.792,17.74-21.769,18.204-29.665c0.066-1.136,0.114-1.955,0.194-2.445c0.156-0.979,0.054-2.914-0.064-5.154
				c-0.214-4.048-0.479-9.087,0.465-12.849c0.935-3.698,3.85-5.414,6.323-5.475l0.341-0.003c4.596,0,7.175,2.152,7.667,6.397
				c0.414,3.546-0.979,8.027-2.21,11.981c-0.598,1.922-1.162,3.737-1.433,5.188c-2.866,15.429-2.201,29.778-0.651,30.588
				l0.155-0.007h0.001c3.03,0,3.992-1.857,4.84-3.495c0.658-1.27,1.356-2.607,2.943-2.362c0.773,0.121,1.693,0.882,1.699,3.817
				c0.004,2.348-0.634,6.089-2.439,9.549c-2.008,3.847-4.857,6.167-8.242,6.712c-0.461,0.074-0.909,0.112-1.333,0.112
				C289.149,148.556,289.149,148.556,289.148,148.556z"/>
		</g>
	</g>
</g>
<g>
	<path fill="#753818" d="M189.837,148.75h-0.114c-2.343-0.015-4.25-0.799-5.669-2.33c-2.899-3.129-2.869-8.364-2.722-10.47
		c0.12-1.725,0.556-5.016,1.107-9.184c1.603-12.12,5.358-40.503,1.067-41.582c-0.432-0.108-0.858-0.164-1.267-0.164
		c-1.587,0-2.804,0.836-3.877,1.574c-0.918,0.632-1.787,1.228-2.771,1.228c-0.698,0-1.335-0.291-1.948-0.892
		c-0.99-0.968-1.239-2.444-0.701-4.158c0.997-3.174,4.781-7.055,9.156-7.787c0.53-0.089,1.083-0.134,1.645-0.134
		c3.296,0,7.357,1.655,8.999,5.352c2,4.51,0.582,9.461-0.454,13.077c-0.39,1.363-0.925,3.229-0.682,3.593
		c0.003-0.001,0.031,0.009,0.099,0.015c0.458-0.153,1.813-2.211,3.008-4.026c3.478-5.284,8.735-13.268,16.604-15.396
		c2.248-0.608,4.734-0.942,7.002-0.942c2.438,0,5.829,0.379,8.137,2.186c6.521,5.104,3.89,19.314,1.568,31.853
		c-1.029,5.559-2.001,10.809-2.114,14.808c-0.248,3.127,0.127,7.804,1.713,8.031c2.999,0.428,3.946-1.516,4.83-3.404
		c0.644-1.378,1.327-2.829,2.907-2.578c0.762,0.125,1.667,0.898,1.673,3.878c0.01,4.643-2.614,15.262-10.472,16.579
		c-0.392,0.066-0.778,0.1-1.151,0.1c-6.69,0-7.901-9.983-8.111-14.275l-0.193-2.188c-0.754-9.801,1.006-19.86,2.42-27.943
		c1.105-6.32,2.061-11.778,0.977-13.419c-1.163-1.762-3.303-2.132-4.893-2.132c-4.733,0-10.729,3.097-14.254,7.362
		c-4.186,5.066-6.664,9.041-7.771,15.525c-1.434,8.406,0.235,15.582,1.453,20.821c0.504,2.167,0.939,4.039,1.077,5.612
		c0.46,5.244,0.016,8.181-1.485,9.818C193.335,148.57,191.388,148.75,189.837,148.75z"/>
</g>
<g>
	<path fill="#753818" d="M319.666,148.274C319.666,148.274,319.666,148.274,319.666,148.274h-0.114
		c-8.448-0.051-9.4-9.371-9.714-12.435c-0.294-2.878-2.795-28.745,0.002-50.431c0.245-1.896,0.863-4.941,1.58-8.468
		c1.915-9.43,4.811-23.681,2.544-26.804c-0.041-0.061-3.108-4.446-8.322-5.654c-1.565-0.363-3.555-0.624-5.661-0.901
		c-5.517-0.725-11.77-1.546-15.347-4.607c-2.547-2.179-19.45-18.893-15.465-24.58c1.295-1.848,4.588-2.784,9.786-2.784
		c6.469,0,14.816,1.573,18.229,3.435l0.318,0.173c4.136,2.247,8.823,4.793,13.611,20.751c1.727,5.752,4.108,7.272,5.127,7.272
		c0.328,0,0.566-0.143,0.731-0.437l0.213-0.379c1.697-3.006,3.453-6.116-0.639-17.427c-0.777-2.15-2.288-4.514-3.748-6.8
		c-1.427-2.234-2.903-4.544-3.679-6.651c-0.874-2.372,0.067-6.425,2.636-8.3c1.183-0.863,2.558-1.319,3.976-1.319
		c2.319,0,4.574,1.187,6.03,3.176c2.426,3.312,3.935,6.563,4.47,13.386c0.5,6.375-0.092,10.58-0.718,15.031
		c-0.404,2.876-0.821,5.836-0.942,9.52c0.783-0.517,1.834-1.024,3.071-1.623c3.049-1.474,7.225-3.494,10.378-7.177
		c3.435-4.012,6.823-6.222,9.541-6.222c1.362,0,2.53,0.567,3.377,1.641c1.414,1.793,1.934,3.602,1.543,5.376
		c-0.815,3.708-5.409,6.494-10.252,8.952c-1.562,0.791-4.978,1.736-8.594,2.737c-3.818,1.057-8.146,2.254-9.712,3.174
		c-3.164,1.86-4.371,26.406-4.389,41.441c-0.016,12.748,3.29,28.904,5.265,38.557c0.705,3.446,1.215,5.936,1.318,7.066
		c0.47,5.136,0.03,8.027-1.469,9.669C323.329,148.079,321.389,148.274,319.666,148.274z"/>
</g>
<g>
	<path fill="#4BB649" d="M275.404,17.493c-2.989,4.196,13.887,23.802,28.708,21.272c1.948-0.333,1.948-0.333-1.886-5.523
		c-1.662-2.242-12.343-11.887-18.171-10.575c-2.736,0.616-6.205,0.376-5.104-2.716c1.568-4.394,12.997,3.316,15.014,4.482
		c6.404,3.703,10.61,10.611,12.542,13.269c1.017-0.583-8.525-28.553-30.931-20.49L275.404,17.493z"/>
</g>
</svg>
