<?xml version="1.0" encoding="utf-8"?>
<!-- Generator: Adobe Illustrator 17.0.0, SVG Export Plug-In . SVG Version: 6.00 Build 0)  -->
<!DOCTYPE svg PUBLIC "-//W3C//DTD SVG 1.1//EN" "http://www.w3.org/Graphics/SVG/1.1/DTD/svg11.dtd">
<svg version="1.1" id="Layer_1" xmlns="http://www.w3.org/2000/svg" xmlns:xlink="http://www.w3.org/1999/xlink" x="0px" y="0px"
	 width="40.662px" height="235.313px" viewBox="0 0 40.662 235.313" enable-background="new 0 0 40.662 235.313"
	 xml:space="preserve">
<g>
	<path fill="#FFD000" d="M22.932,234.737c8.68,0.051,6.006-2.127,14.79-2.741c0,0-1.372-0.729-2.349-0.953
		c5.47-0.446,1.079-1.672-2.042-2.17c-3.121-0.499-0.482-1.795-2.632-3.66c-2.165-1.864-1.574-2.178-1.782-2.937l0.755-1.624
		c-1.396-1.153-1.621-2.213-2.014-3.987l0.503-1.772c-0.23-0.425,3.719-0.957,3.25-1.356l-7.657-0.574l3.415-1.224
		c-0.6-0.361-4.15-1.574-5.89-2.765c-2.805-0.684-6.478-2.472-1.966-4.129c4.525-1.656,16.871-3.561,14.87-3.931
		c-2.002-0.368-1.188-1.688-8.162-2.134c-6.974-0.444,3.75-1.458,6.304-2.649c2.589-1.191,5.625-1.982,2.741-2.809
		c-2.885-0.826,0.877-1.737-4.631-1.946c-5.506-0.211-7.186-0.336-7.186-0.336c-2.278-0.347-0.194-0.547-2.238-1.123l0.663-0.232
		l5.031-0.346c-4.418-0.491,2.038-1.131,1.134-1.426c2.531-0.809,5.577-1.716-5.899-2.753l-0.621-0.579
		c0-0.172-0.206-0.354-2.668-0.501c-4.7,0.001-11.032-0.01-18.617-0.027v51.177c10.984,0.007,17.407,0.012,17.407,0.012
		C13.776,234.846,23.638,235.129,22.932,234.737z"/>
	<path fill="#FFD000" d="M39.574,0.257c-6.707,0.169-9.237,0.381-9.237,0.646c0,0.481,4.33,0.57,5.582,0.806
		S28.261,2.32,27.31,2.414c-0.213,0.328-3.893,0.604-4.323,0.678c-0.99,0.17,1.957,1.1,0.823,1.639
		c-0.841,0.4-5.827,0.395-6.339,0.705c-0.907,0.551,6.273,2.071,5.782,2.715c-0.689,0.904-5.437,1.883-6.57,1.921
		c0,0-3.589,0.094-4.078,0.183c-0.014,0.001-5.438,0.274-1.934,0.949c0.088,0.017,2.05,0.331,1.888,0.388
		c-1.493,0.53,1.364,0.879,0.995,0.908c0.554,0.288-4.248,0.728-4.194,1.135c0.097,0.676,1.769,0.327,1.246,0.542
		c0.283,0.011,0.579,0.022,0.958,0.029c0.601,0.012,1.059,0.026,1.413,0.044l7.033,0.012c-0.275,0.616-8.17,0.624-6.171,1.189
		c13.592,0.19,2.916,1.358,3.729,1.339l-1.383,0.099c-1.086,0.07,1.158,0.418-0.178,0.438c-0.342,0.045-1.009,0.085-2.01,0.111
		c-3.626,0.094,2.685,1.192,1.334,1.57c-2.043,0.572-9.307,0.562-12.039,1.864c-3.267,1.563-1.471,2.507-0.229,3.084
		c5.793-0.159,2.408,0.773,1.442,0.94c1.388,0.037,2.31,0.104,1.894,0.194c-1.502,0.326-3.488,2.83-1.585,3.081
		c0.133,0.004,0.271,0.008,0.392,0.012c1.126,0.045,10.388,0.839,3.68,0.941c0.656,0.173,3.38,0.873,1.326,0.955
		c-0.522,0.076-0.943,0.152-1.259,0.226l0.536-0.047c0.935,0.591-6.212,0.932,1.663,1.297c0,0,4.452,0.364-2.392,0.53
		c-0.361,0.322,0.73,0.641,2.032,0.949l-3.625,0.64c8.482,0.589,3.23,5.52,4.595,6.777c0.107,0.534,4.985,0.754,3.142,1.337
		c-2.979,0.943,10.287,1.806,12.767,1.949c1.586,0.091-13.632,1.996-8.063,1.885l3.412,0.42l2.981-0.201
		c-0.19,0.116-1.145,1.644-4.131,2.157c-2.488,0.859,11.086,0.376,9.76,1.236c-3.233-0.001-1.454,1.662,7.474,2.183
		c0.326,0,0.862,0.001,1.573,0.001V0.23C40.304,0.239,39.931,0.248,39.574,0.257z"/>
	<path fill="#FFD000" d="M1.851,172.84c-1.237-0.238,4.881-0.994,5.82-1.088c0.211-0.331,8.59-0.067,8.834-0.454
		c2.427-2.045,8.012-4.041,7.022-6.108c0.164-0.004,0.293-0.007,0.434-0.01c-0.38-0.375-0.491-0.752,0.528-1.129
		c-0.268-0.182-0.639-0.362-1.346-0.544c0.968-0.066,2.071-0.113,3.191-0.151h0.004c1.218-0.08,1.798-0.159,2.282-0.249
		c0.014-0.001,0.04-0.003,0.054-0.005c-0.009-0.073-0.307-0.149-0.467-0.207c-0.087-0.033,0.117-0.063,0.481-0.093
		c-0.546-0.291-0.819-0.696-0.873-1.106c-0.096-0.684,0.406-1.382,0.922-1.599c-0.279-0.011-0.573-0.022-0.946-0.03
		c-0.595-0.012-1.047-0.026-1.397-0.044l-6.949-0.012c0.273-0.623,11.102-0.209,9.127-0.78c-13.431-0.191-5.911-1.794-6.714-1.775
		l-2.259-0.405c1.074-0.071,2.482-0.118,3.802-0.138c0.338-0.045,0.997-0.085,1.985-0.112c1.456-0.039,2.221-0.081,2.787-0.141
		c1.983-0.709,5.092-2.013,7.792-3.33c3.228-1.579,1.454-2.532,0.226-3.115c-5.724,0.161-2.379-0.781-1.425-0.949
		c-1.371-0.037-2.282-0.104-1.871-0.196c1.483-0.329,3.447-2.86,1.566-3.114c-0.131-0.004-0.267-0.008-0.388-0.012
		c-1.113-0.045-2.101-0.096-2.548-0.162c-0.291-0.042-0.349-0.088-0.373-0.132c-1.205,0.013-2.444-0.001-3.162-0.077
		c6.509-0.044-4.181-0.477,2.447-0.579c-0.649-0.176-3.341-0.883-1.31-0.966c0.517-0.077,0.932-0.153,1.245-0.229l-0.532,0.048
		c-0.922-0.597,6.139-0.942-1.643-1.311c0,0-4.4-0.367,2.364-0.535c0.357-0.325,0.843-0.653-0.444-0.965l-0.087,0.046
		c-8.381-0.595-1.087-6.262-2.436-7.534c-0.106-0.539-3.061-2.218-3.372-3.812c-0.283-1.611-12.953,0.076-10.549-0.414
		c3.85-0.404,11.67-1.11,6.168-0.997l-3.372-0.424l-2.946,0.203c0.188-0.117-2.87-1.66,0.08-2.18
		c2.459-0.868-10.954-0.381-9.644-1.249c2.719,0.002,1.831-1.214-3.927-1.901v51.208c3.851-0.162,6.03-0.354,6.03-0.583
		C6.064,172.916,3.088,173.077,1.851,172.84z"/>
	<path fill="#FFD000" d="M22.713,61.504c3.653,0.394-6.174,0.111-5.47,0.503c-8.649-0.05-13.471,5.368-10.362,5.867
		c3.108,0.499,0.48,1.796,2.622,3.661c2.157,1.866-6.1,3.506-5.892,4.264l6.915,0.299c1.389,1.153,1.614,2.214,2.006,3.989
		l-0.502,1.773c0.23,0.425-3.706,0.958-3.238,1.357l7.629,0.573l-3.402,1.224c0.597,0.361,4.135,1.576,5.869,2.767
		c2.795,0.684,0.035,0.657-4.461,2.315c-4.509,1.657-10.391,5.378-8.397,5.748c1.994,0.368,1.183,1.69,8.132,2.135
		c-2.44,2.124-3.738,1.459-6.282,2.651c-2.58,1.191-5.604,1.982-2.73,2.808c2.874,0.827-0.873,1.738,4.614,1.947
		c5.488,0.211,7.161,0.336,7.161,0.336c2.269,0.348,0.193,0.547,2.23,1.125l-0.659,0.231l-5.014,0.346
		c4.402,0.492-2.029,1.131-1.13,1.428c-2.521,0.808-5.555,1.716,5.878,2.753l0.62,0.579c0,0.172,0.205,0.353,2.658,0.501
		c4.809-0.001,11.342,0.01,19.172,0.028V61.517C29.374,61.509,22.713,61.504,22.713,61.504z"/>
</g>
</svg>
