<?xml version="1.0" encoding="utf-8"?>
<!-- Generator: Adobe Illustrator 17.0.0, SVG Export Plug-In . SVG Version: 6.00 Build 0)  -->
<!DOCTYPE svg PUBLIC "-//W3C//DTD SVG 1.1//EN" "http://www.w3.org/Graphics/SVG/1.1/DTD/svg11.dtd">
<svg version="1.1" id="Layer_1" xmlns="http://www.w3.org/2000/svg" xmlns:xlink="http://www.w3.org/1999/xlink" x="0px" y="0px"
	 width="205px" height="12px" viewBox="0 0 205 12" enable-background="new 0 0 205 12" xml:space="preserve">
<path fill="#4CB448" d="M181.608,8.856c-4.624,0-11.223-0.502-18.132-1.028c-3.534-0.269-10.343-0.548-13.748-0.757
	c-8.175-0.501-13.194-0.285-23.544-0.014c-4.015,0.106-8.315,0.22-13.003,0.3c-3.639,0.062-7.405,0.157-11.275,0.256
	C88.335,7.958,72.952,9.321,57.462,8.324C40.496,7.234,22.721,6.457,0.018,7.984V5.078C22.837,3.544,40.544,4.32,57.624,5.417
	C73,6.405,88.323,5.044,101.841,4.701c3.877-0.099,7.65-0.194,11.296-0.257c4.679-0.08,8.972-0.192,12.979-0.299
	c10.411-0.274,15.478-0.492,23.766,0.019c3.424,0.21,10.243,0.489,13.786,0.758c8.456,0.645,17.343,1.249,21.598,0.937
	c9.423-0.702,19.641-0.783,19.752-0.784v2.912c-0.11,0.001-10.228,0.082-19.564,0.776C184.6,8.827,182.709,8.856,181.608,8.856z"/>
</svg>
