<?xml version="1.0" encoding="utf-8"?>
<!-- Generator: Adobe Illustrator 17.0.0, SVG Export Plug-In . SVG Version: 6.00 Build 0)  -->
<!DOCTYPE svg PUBLIC "-//W3C//DTD SVG 1.1//EN" "http://www.w3.org/Graphics/SVG/1.1/DTD/svg11.dtd">
<svg version="1.1" id="Layer_1" xmlns="http://www.w3.org/2000/svg" xmlns:xlink="http://www.w3.org/1999/xlink" x="0px" y="0px"
	 width="28.181px" height="12.53px" viewBox="0 0 28.181 12.53" enable-background="new 0 0 28.181 12.53" xml:space="preserve">
<g>
	<path fill="#4BB649" d="M0.301,6.224C0.01,9.931,18.063,15.515,26.285,8.429c0.531-0.457-0.411-0.824-1.58-1.082
		c-2.489-0.549-7.615-0.537-10.544-1.754C12.3,4.823,9.311,5.157,7.581,6.212c-0.235,0.142-3.703,2.537-4.17,0.215
		c-0.662-3.301,8.987-2.953,10.606-2.496c3.619,1.02,7.733,2.871,10.659,3.357c1.587,0.266,3.194-0.359,3.339-0.619
		C28.428,5.93,11.18-7.327,0.304,5.985L0.301,6.224z"/>
</g>
</svg>
