<?xml version="1.0" encoding="utf-8"?>
<!-- Generator: Adobe Illustrator 17.0.0, SVG Export Plug-In . SVG Version: 6.00 Build 0)  -->
<!DOCTYPE svg PUBLIC "-//W3C//DTD SVG 1.1//EN" "http://www.w3.org/Graphics/SVG/1.1/DTD/svg11.dtd">
<svg version="1.1" id="Layer_1" xmlns="http://www.w3.org/2000/svg" xmlns:xlink="http://www.w3.org/1999/xlink" x="0px" y="0px"
	 width="28px" height="12.53px" viewBox="0 0 28 12.53" enable-background="new 0 0 28 12.53" xml:space="preserve">
<g>
	<path fill="#4BB649" d="M27.623,4.824C27.465,1.108,8.87-2.263,1.562,5.762C1.089,6.28,2.068,6.53,3.26,6.645
		c2.538,0.246,7.625-0.383,10.679,0.473c1.94,0.54,4.867-0.151,6.458-1.406c0.217-0.169,3.371-2.965,4.113-0.715
		c1.055,3.197-8.565,4.012-10.227,3.754C10.566,8.174,6.26,6.831,3.295,6.7c-1.606-0.072-3.126,0.742-3.24,1.018
		c-0.32,0.783,18.399,11.868,27.593-2.657L27.623,4.824z"/>
</g>
</svg>
