<?xml version="1.0" encoding="utf-8"?>
<!-- Generator: Adobe Illustrator 17.0.0, SVG Export Plug-In . SVG Version: 6.00 Build 0)  -->
<!DOCTYPE svg PUBLIC "-//W3C//DTD SVG 1.1//EN" "http://www.w3.org/Graphics/SVG/1.1/DTD/svg11.dtd">
<svg version="1.1" id="Layer_1" xmlns="http://www.w3.org/2000/svg" xmlns:xlink="http://www.w3.org/1999/xlink" x="0px" y="0px"
	 width="205.5px" height="12.534px" viewBox="0 0 205.5 12.534" enable-background="new 0 0 205.5 12.534" xml:space="preserve">
<path fill="#4DB548" d="M182.049,9.198c-4.636,0-11.251-0.518-18.178-1.059c-3.542-0.277-10.369-0.564-13.783-0.78
	c-8.196-0.516-13.227-0.294-23.603-0.015c-4.025,0.109-8.336,0.227-13.035,0.309c-3.648,0.063-7.423,0.162-11.303,0.264
	C88.541,8.273,73.119,9.677,57.59,8.65C40.581,7.527,22.762,6.727,0.002,8.3V5.306c22.876-1.58,40.628-0.781,57.751,0.35
	c15.414,1.018,30.776-0.385,44.328-0.738c3.887-0.102,7.669-0.2,11.324-0.265c4.691-0.082,8.994-0.198,13.012-0.308
	c10.437-0.282,15.517-0.507,23.826,0.02c3.433,0.217,10.269,0.504,13.82,0.781c8.477,0.664,17.387,1.287,21.652,0.965
	c9.446-0.723,19.69-0.807,19.802-0.808v3c-0.11,0.001-10.254,0.084-19.613,0.8C185.049,9.169,183.153,9.198,182.049,9.198z"/>
</svg>
